<?xml version="1.0" encoding="UTF-8"?>
<!-- 2021-04-03 18:49:44 Generated by QCAD 3.25.2 SVG Exporter -->
<svg width="72mm" height="53mm" viewBox="-6 -47 72 53" version="1.1" xmlns="http://www.w3.org/2000/svg" style="stroke-linecap:round;stroke-linejoin:round;fill:none">
    <g transform="scale(1,-1)">
        <!-- Circle -->
        <circle cx="2" cy="39" r="1.200000000000003" style="stroke:#000000;stroke-width:0.25;"/>
        <!-- Circle -->
        <circle cx="-3" cy="44" r="1.5" style="stroke:#000000;stroke-width:0.25;"/>
        <!-- Circle -->
        <circle cx="63" cy="44" r="1.5" style="stroke:#000000;stroke-width:0.25;"/>
        <!-- Circle -->
        <circle cx="63" cy="-3" r="1.5" style="stroke:#000000;stroke-width:0.25;"/>
        <!-- Circle -->
        <circle cx="-3" cy="-3" r="1.5" style="stroke:#000000;stroke-width:0.25;"/>
        <!-- Circle -->
        <circle cx="58" cy="2" r="1.2" style="stroke:#000000;stroke-width:0.25;"/>
        <!-- Circle -->
        <circle cx="58" cy="39" r="1.200000000000003" style="stroke:#000000;stroke-width:0.25;"/>
        <!-- Circle -->
        <circle cx="2" cy="2" r="1.2" style="stroke:#000000;stroke-width:0.25;"/>
        <!-- Arc -->
        <path d="M55.9976,4.262 A0.0381,0.0381 0 1,1 56,4.3381" style="stroke:#000000;stroke-width:0.25;"/>
        <!-- Arc -->
        <path d="M55.738,4.0024 A0.3,0.3 0 0,1 55.9976,4.262" style="stroke:#000000;stroke-width:0.25;"/>
        <!-- Arc -->
        <path d="M55.6619,4 A0.0381,0.0381 0 1,1 55.738,4.0024" style="stroke:#000000;stroke-width:0.25;"/>
        <!-- Line -->
        <path d="M42.3381,4 L55.6619,4 " style="stroke:#000000;stroke-width:0.25;"/>
        <!-- Arc -->
        <path d="M42.262,4.0024 A0.0381,0.0381 0 1,1 42.3381,4" style="stroke:#000000;stroke-width:0.25;"/>
        <!-- Arc -->
        <path d="M42.0024,4.262 A0.3,0.3 0 0,1 42.262,4.0024" style="stroke:#000000;stroke-width:0.25;"/>
        <!-- Arc -->
        <path d="M42,4.3381 A0.0381,0.0381 0 1,1 42.0024,4.262" style="stroke:#000000;stroke-width:0.25;"/>
        <!-- Line -->
        <path d="M42,17.6619 L42,4.3381 " style="stroke:#000000;stroke-width:0.25;"/>
        <!-- Arc -->
        <path d="M42.0024,17.738 A0.0381,0.0381 0 1,1 42,17.6619" style="stroke:#000000;stroke-width:0.25;"/>
        <!-- Arc -->
        <path d="M42.262,17.9976 A0.3,0.3 0 0,1 42.0024,17.738" style="stroke:#000000;stroke-width:0.25;"/>
        <!-- Arc -->
        <path d="M42.3381,18 A0.0381,0.0381 0 1,1 42.262,17.9976" style="stroke:#000000;stroke-width:0.25;"/>
        <!-- Line -->
        <path d="M55.6619,18 L42.3381,18 " style="stroke:#000000;stroke-width:0.25;"/>
        <!-- Arc -->
        <path d="M55.738,17.9976 A0.0381,0.0381 0 1,1 55.6619,18" style="stroke:#000000;stroke-width:0.25;"/>
        <!-- Arc -->
        <path d="M55.9976,17.738 A0.3,0.3 0 0,1 55.738,17.9976" style="stroke:#000000;stroke-width:0.25;"/>
        <!-- Arc -->
        <path d="M56,17.6619 A0.0381,0.0381 0 1,1 55.9976,17.738" style="stroke:#000000;stroke-width:0.25;"/>
        <!-- Line -->
        <path d="M56,4.3381 L56,17.6619 " style="stroke:#000000;stroke-width:0.25;"/>
        <!-- Arc -->
        <path d="M36.738,17.9976 A0.0381,0.0381 0 1,1 36.6619,18" style="stroke:#000000;stroke-width:0.25;"/>
        <!-- Arc -->
        <path d="M36.9976,17.738 A0.3,0.3 0 0,1 36.738,17.9976" style="stroke:#000000;stroke-width:0.25;"/>
        <!-- Arc -->
        <path d="M37,17.6619 A0.0381,0.0381 0 1,1 36.9976,17.738" style="stroke:#000000;stroke-width:0.25;"/>
        <!-- Line -->
        <path d="M37,4.3381 L37,17.6619 " style="stroke:#000000;stroke-width:0.25;"/>
        <!-- Arc -->
        <path d="M36.9976,4.262 A0.0381,0.0381 0 1,1 37,4.3381" style="stroke:#000000;stroke-width:0.25;"/>
        <!-- Arc -->
        <path d="M36.738,4.0024 A0.3,0.3 0 0,1 36.9976,4.262" style="stroke:#000000;stroke-width:0.25;"/>
        <!-- Arc -->
        <path d="M36.6619,4 A0.0381,0.0381 0 1,1 36.738,4.0024" style="stroke:#000000;stroke-width:0.25;"/>
        <!-- Line -->
        <path d="M23.3381,4 L36.6619,4 " style="stroke:#000000;stroke-width:0.25;"/>
        <!-- Arc -->
        <path d="M23.262,4.0024 A0.0381,0.0381 0 1,1 23.3381,4" style="stroke:#000000;stroke-width:0.25;"/>
        <!-- Arc -->
        <path d="M23.0024,4.262 A0.3,0.3 0 0,1 23.262,4.0024" style="stroke:#000000;stroke-width:0.25;"/>
        <!-- Arc -->
        <path d="M23,4.3381 A0.0381,0.0381 0 1,1 23.0024,4.262" style="stroke:#000000;stroke-width:0.25;"/>
        <!-- Line -->
        <path d="M23,17.6619 L23,4.3381 " style="stroke:#000000;stroke-width:0.25;"/>
        <!-- Arc -->
        <path d="M23.0024,17.738 A0.0381,0.0381 0 1,1 23,17.6619" style="stroke:#000000;stroke-width:0.25;"/>
        <!-- Arc -->
        <path d="M23.262,17.9976 A0.3,0.3 0 0,1 23.0024,17.738" style="stroke:#000000;stroke-width:0.25;"/>
        <!-- Arc -->
        <path d="M23.3381,18 A0.0381,0.0381 0 1,1 23.262,17.9976" style="stroke:#000000;stroke-width:0.25;"/>
        <!-- Line -->
        <path d="M36.6619,18 L23.3381,18 " style="stroke:#000000;stroke-width:0.25;"/>
        <!-- Arc -->
        <path d="M17.738,17.9976 A0.0381,0.0381 0 1,1 17.6619,18" style="stroke:#000000;stroke-width:0.25;"/>
        <!-- Arc -->
        <path d="M17.9976,17.738 A0.3,0.3 0 0,1 17.738,17.9976" style="stroke:#000000;stroke-width:0.25;"/>
        <!-- Arc -->
        <path d="M18,17.6619 A0.0381,0.0381 0 1,1 17.9976,17.738" style="stroke:#000000;stroke-width:0.25;"/>
        <!-- Line -->
        <path d="M18,4.3381 L18,17.6619 " style="stroke:#000000;stroke-width:0.25;"/>
        <!-- Arc -->
        <path d="M17.9976,4.262 A0.0381,0.0381 0 1,1 18,4.3381" style="stroke:#000000;stroke-width:0.25;"/>
        <!-- Arc -->
        <path d="M17.738,4.0024 A0.3,0.3 0 0,1 17.9976,4.262" style="stroke:#000000;stroke-width:0.25;"/>
        <!-- Arc -->
        <path d="M17.6619,4 A0.0381,0.0381 0 1,1 17.738,4.0024" style="stroke:#000000;stroke-width:0.25;"/>
        <!-- Line -->
        <path d="M16.3381,4 L17.6619,4 " style="stroke:#000000;stroke-width:0.25;"/>
        <!-- Arc -->
        <path d="M16.262,3.9976 A0.0381,0.0381 0 0,1 16.3381,4" style="stroke:#000000;stroke-width:0.25;"/>
        <!-- Arc -->
        <path d="M16.262,3.9976 A0.3,0.3 0 0,1 16.0024,3.738" style="stroke:#000000;stroke-width:0.25;"/>
        <!-- Arc -->
        <path d="M16,3.6619 A0.0381,0.0381 0 0,1 16.0024,3.738" style="stroke:#000000;stroke-width:0.25;"/>
        <!-- Line -->
        <path d="M16,3.1381 L16,3.6619 " style="stroke:#000000;stroke-width:0.25;"/>
        <!-- Arc -->
        <path d="M15.9976,3.062 A0.0381,0.0381 0 1,1 16,3.1381" style="stroke:#000000;stroke-width:0.25;"/>
        <!-- Arc -->
        <path d="M15.738,2.8024 A0.3,0.3 0 0,1 15.9976,3.062" style="stroke:#000000;stroke-width:0.25;"/>
        <!-- Arc -->
        <path d="M15.6619,2.8 A0.0381,0.0381 0 1,1 15.738,2.8024" style="stroke:#000000;stroke-width:0.25;"/>
        <!-- Line -->
        <path d="M6.3381,2.8 L15.6619,2.8 " style="stroke:#000000;stroke-width:0.25;"/>
        <!-- Arc -->
        <path d="M6.262,2.8024 A0.0381,0.0381 0 1,1 6.3381,2.8" style="stroke:#000000;stroke-width:0.25;"/>
        <!-- Arc -->
        <path d="M6.0024,3.062 A0.3,0.3 0 0,1 6.262,2.8024" style="stroke:#000000;stroke-width:0.25;"/>
        <!-- Arc -->
        <path d="M6,3.1381 A0.0381,0.0381 0 1,1 6.0024,3.062" style="stroke:#000000;stroke-width:0.25;"/>
        <!-- Line -->
        <path d="M6,3.6619 L6,3.1381 " style="stroke:#000000;stroke-width:0.25;"/>
        <!-- Arc -->
        <path d="M5.9976,3.738 A0.0381,0.0381 0 0,1 6,3.6619" style="stroke:#000000;stroke-width:0.25;"/>
        <!-- Arc -->
        <path d="M5.9976,3.738 A0.3,0.3 0 0,1 5.738,3.9976" style="stroke:#000000;stroke-width:0.25;"/>
        <!-- Arc -->
        <path d="M5.6619,4 A0.0381,0.0381 0 0,1 5.738,3.9976" style="stroke:#000000;stroke-width:0.25;"/>
        <!-- Line -->
        <path d="M4.3381,4 L5.6619,4 " style="stroke:#000000;stroke-width:0.25;"/>
        <!-- Arc -->
        <path d="M4.262,4.0024 A0.0381,0.0381 0 1,1 4.3381,4" style="stroke:#000000;stroke-width:0.25;"/>
        <!-- Arc -->
        <path d="M4.0024,4.262 A0.3,0.3 0 0,1 4.262,4.0024" style="stroke:#000000;stroke-width:0.25;"/>
        <!-- Arc -->
        <path d="M4,4.3381 A0.0381,0.0381 0 1,1 4.0024,4.262" style="stroke:#000000;stroke-width:0.25;"/>
        <!-- Line -->
        <path d="M4,17.6619 L4,4.3381 " style="stroke:#000000;stroke-width:0.25;"/>
        <!-- Arc -->
        <path d="M4.0024,17.738 A0.0381,0.0381 0 1,1 4,17.6619" style="stroke:#000000;stroke-width:0.25;"/>
        <!-- Arc -->
        <path d="M4.262,17.9976 A0.3,0.3 0 0,1 4.0024,17.738" style="stroke:#000000;stroke-width:0.25;"/>
        <!-- Arc -->
        <path d="M4.3381,18 A0.0381,0.0381 0 1,1 4.262,17.9976" style="stroke:#000000;stroke-width:0.25;"/>
        <!-- Line -->
        <path d="M17.6619,18 L4.3381,18 " style="stroke:#000000;stroke-width:0.25;"/>
        <!-- Arc -->
        <path d="M55.9976,23.262 A0.0381,0.0381 0 1,1 56,23.3381" style="stroke:#000000;stroke-width:0.25;"/>
        <!-- Arc -->
        <path d="M55.738,23.0024 A0.3,0.3 0 0,1 55.9976,23.262" style="stroke:#000000;stroke-width:0.25;"/>
        <!-- Arc -->
        <path d="M55.6619,23 A0.0381,0.0381 0 1,1 55.738,23.0024" style="stroke:#000000;stroke-width:0.25;"/>
        <!-- Line -->
        <path d="M42.3381,23 L55.6619,23 " style="stroke:#000000;stroke-width:0.25;"/>
        <!-- Arc -->
        <path d="M42.262,23.0024 A0.0381,0.0381 0 1,1 42.3381,23" style="stroke:#000000;stroke-width:0.25;"/>
        <!-- Arc -->
        <path d="M42.0024,23.262 A0.3,0.3 0 0,1 42.262,23.0024" style="stroke:#000000;stroke-width:0.25;"/>
        <!-- Arc -->
        <path d="M42,23.3381 A0.0381,0.0381 0 1,1 42.0024,23.262" style="stroke:#000000;stroke-width:0.25;"/>
        <!-- Line -->
        <path d="M42,36.6619 L42,23.3381 " style="stroke:#000000;stroke-width:0.25;"/>
        <!-- Arc -->
        <path d="M42.0024,36.738 A0.0381,0.0381 0 1,1 42,36.6619" style="stroke:#000000;stroke-width:0.25;"/>
        <!-- Arc -->
        <path d="M42.262,36.9976 A0.3,0.3 0 0,1 42.0024,36.738" style="stroke:#000000;stroke-width:0.25;"/>
        <!-- Arc -->
        <path d="M42.3381,37 A0.0381,0.0381 0 1,1 42.262,36.9976" style="stroke:#000000;stroke-width:0.25;"/>
        <!-- Line -->
        <path d="M55.6619,37 L42.3381,37 " style="stroke:#000000;stroke-width:0.25;"/>
        <!-- Arc -->
        <path d="M55.738,36.9976 A0.0381,0.0381 0 1,1 55.6619,37" style="stroke:#000000;stroke-width:0.25;"/>
        <!-- Arc -->
        <path d="M55.9976,36.738 A0.3,0.3 0 0,1 55.738,36.9976" style="stroke:#000000;stroke-width:0.25;"/>
        <!-- Arc -->
        <path d="M56,36.6619 A0.0381,0.0381 0 1,1 55.9976,36.738" style="stroke:#000000;stroke-width:0.25;"/>
        <!-- Line -->
        <path d="M56,23.3381 L56,36.6619 " style="stroke:#000000;stroke-width:0.25;"/>
        <!-- Arc -->
        <path d="M36.9976,23.262 A0.0381,0.0381 0 1,1 37,23.3381" style="stroke:#000000;stroke-width:0.25;"/>
        <!-- Arc -->
        <path d="M36.738,23.0024 A0.3,0.3 0 0,1 36.9976,23.262" style="stroke:#000000;stroke-width:0.25;"/>
        <!-- Arc -->
        <path d="M36.6619,23 A0.0381,0.0381 0 1,1 36.738,23.0024" style="stroke:#000000;stroke-width:0.25;"/>
        <!-- Line -->
        <path d="M23.3381,23 L36.6619,23 " style="stroke:#000000;stroke-width:0.25;"/>
        <!-- Arc -->
        <path d="M23.262,23.0024 A0.0381,0.0381 0 1,1 23.3381,23" style="stroke:#000000;stroke-width:0.25;"/>
        <!-- Arc -->
        <path d="M23.0024,23.262 A0.3,0.3 0 0,1 23.262,23.0024" style="stroke:#000000;stroke-width:0.25;"/>
        <!-- Arc -->
        <path d="M23,23.3381 A0.0381,0.0381 0 1,1 23.0024,23.262" style="stroke:#000000;stroke-width:0.25;"/>
        <!-- Line -->
        <path d="M23,36.6619 L23,23.3381 " style="stroke:#000000;stroke-width:0.25;"/>
        <!-- Arc -->
        <path d="M23.0024,36.738 A0.0381,0.0381 0 1,1 23,36.6619" style="stroke:#000000;stroke-width:0.25;"/>
        <!-- Arc -->
        <path d="M23.262,36.9976 A0.3,0.3 0 0,1 23.0024,36.738" style="stroke:#000000;stroke-width:0.25;"/>
        <!-- Arc -->
        <path d="M23.3381,37 A0.0381,0.0381 0 1,1 23.262,36.9976" style="stroke:#000000;stroke-width:0.25;"/>
        <!-- Line -->
        <path d="M36.6619,37 L23.3381,37 " style="stroke:#000000;stroke-width:0.25;"/>
        <!-- Arc -->
        <path d="M36.738,36.9976 A0.0381,0.0381 0 1,1 36.6619,37" style="stroke:#000000;stroke-width:0.25;"/>
        <!-- Arc -->
        <path d="M36.9976,36.738 A0.3,0.3 0 0,1 36.738,36.9976" style="stroke:#000000;stroke-width:0.25;"/>
        <!-- Arc -->
        <path d="M37,36.6619 A0.0381,0.0381 0 1,1 36.9976,36.738" style="stroke:#000000;stroke-width:0.25;"/>
        <!-- Line -->
        <path d="M37,23.3381 L37,36.6619 " style="stroke:#000000;stroke-width:0.25;"/>
        <!-- Arc -->
        <path d="M17.9976,23.262 A0.0381,0.0381 0 1,1 18,23.3381" style="stroke:#000000;stroke-width:0.25;"/>
        <!-- Arc -->
        <path d="M17.738,23.0024 A0.3,0.3 0 0,1 17.9976,23.262" style="stroke:#000000;stroke-width:0.25;"/>
        <!-- Arc -->
        <path d="M17.6619,23 A0.0381,0.0381 0 1,1 17.738,23.0024" style="stroke:#000000;stroke-width:0.25;"/>
        <!-- Line -->
        <path d="M4.3381,23 L17.6619,23 " style="stroke:#000000;stroke-width:0.25;"/>
        <!-- Arc -->
        <path d="M4.262,23.0024 A0.0381,0.0381 0 1,1 4.3381,23" style="stroke:#000000;stroke-width:0.25;"/>
        <!-- Arc -->
        <path d="M4.0024,23.262 A0.3,0.3 0 0,1 4.262,23.0024" style="stroke:#000000;stroke-width:0.25;"/>
        <!-- Arc -->
        <path d="M4,23.3381 A0.0381,0.0381 0 1,1 4.0024,23.262" style="stroke:#000000;stroke-width:0.25;"/>
        <!-- Line -->
        <path d="M4,36.6619 L4,23.3381 " style="stroke:#000000;stroke-width:0.25;"/>
        <!-- Arc -->
        <path d="M4.0024,36.738 A0.0381,0.0381 0 1,1 4,36.6619" style="stroke:#000000;stroke-width:0.25;"/>
        <!-- Arc -->
        <path d="M4.262,36.9976 A0.3,0.3 0 0,1 4.0024,36.738" style="stroke:#000000;stroke-width:0.25;"/>
        <!-- Arc -->
        <path d="M4.3381,37 A0.0381,0.0381 0 1,1 4.262,36.9976" style="stroke:#000000;stroke-width:0.25;"/>
        <!-- Line -->
        <path d="M17.6619,37 L4.3381,37 " style="stroke:#000000;stroke-width:0.25;"/>
        <!-- Arc -->
        <path d="M17.738,36.9976 A0.0381,0.0381 0 1,1 17.6619,37" style="stroke:#000000;stroke-width:0.25;"/>
        <!-- Arc -->
        <path d="M17.9976,36.738 A0.3,0.3 0 0,1 17.738,36.9976" style="stroke:#000000;stroke-width:0.25;"/>
        <!-- Arc -->
        <path d="M18,36.6619 A0.0381,0.0381 0 1,1 17.9976,36.738" style="stroke:#000000;stroke-width:0.25;"/>
        <!-- Line -->
        <path d="M18,23.3381 L18,36.6619 " style="stroke:#000000;stroke-width:0.25;"/>
        <!-- Arc -->
        <path d="M60,2.0381 A0.0381,0.0381 0 0,1 59.9996,1.9619" style="stroke:#000000;stroke-width:0.25;"/>
        <!-- Line -->
        <path d="M0,47 L64.5,47 " style="stroke:#000000;stroke-width:0.25;"/>
        <!-- Line -->
        <path d="M66,45.5 L66,-4.5 " style="stroke:#000000;stroke-width:0.25;"/>
        <!-- Line -->
        <path d="M64.5,-6 L-4.5,-6 " style="stroke:#000000;stroke-width:0.25;"/>
        <!-- Line -->
        <path d="M-6,-4.5 L-6,45.5 " style="stroke:#000000;stroke-width:0.25;"/>
        <!-- Line -->
        <path d="M-4.5,47 L0,47 " style="stroke:#000000;stroke-width:0.25;"/>
        <!-- Arc -->
        <path d="M-6,45.5 A1.5,1.5 0 0,0 -4.5,47" style="stroke:#000000;stroke-width:0.25;"/>
        <!-- Arc -->
        <path d="M64.5,47 A1.5,1.5 0 0,0 66,45.5" style="stroke:#000000;stroke-width:0.25;"/>
        <!-- Arc -->
        <path d="M66,-4.5 A1.5,1.5 0 0,0 64.5,-6" style="stroke:#000000;stroke-width:0.25;"/>
        <!-- Arc -->
        <path d="M-4.5,-6 A1.5,1.5 0 0,0 -6,-4.5" style="stroke:#000000;stroke-width:0.25;"/>
    </g>
</svg>
