<?xml version="1.0" encoding="UTF-8"?>
<!-- 2021-04-03 18:49:33 Generated by QCAD 3.25.2 SVG Exporter -->
<svg width="72mm" height="53mm" viewBox="-6 -47 72 53" version="1.1" xmlns="http://www.w3.org/2000/svg" style="stroke-linecap:round;stroke-linejoin:round;fill:none">
    <g transform="scale(1,-1)">
        <!-- Circle -->
        <circle cx="-3" cy="44" r="1.5" style="stroke:#000000;stroke-width:0.25;"/>
        <!-- Circle -->
        <circle cx="-3" cy="-3" r="1.5" style="stroke:#000000;stroke-width:0.25;"/>
        <!-- Circle -->
        <circle cx="63" cy="-3" r="1.5" style="stroke:#000000;stroke-width:0.25;"/>
        <!-- Circle -->
        <circle cx="63" cy="44" r="1.5" style="stroke:#000000;stroke-width:0.25;"/>
        <!-- Line -->
        <path d="M57.9619,41 L2,41 " style="stroke:#000000;stroke-width:0.25;"/>
        <!-- Arc -->
        <path d="M2,41 A2,2 0 0,1 0,39" style="stroke:#000000;stroke-width:0.25;"/>
        <!-- Line -->
        <path d="M0,39 L0,2 " style="stroke:#000000;stroke-width:0.25;"/>
        <!-- Arc -->
        <path d="M0,2 A2,2 0 0,1 2,0" style="stroke:#000000;stroke-width:0.25;"/>
        <!-- Line -->
        <path d="M2,0 L57.9619,0 " style="stroke:#000000;stroke-width:0.25;"/>
        <!-- Arc -->
        <path d="M58.0381,0.0004 A0.0381,0.0381 0 0,1 57.9619,0" style="stroke:#000000;stroke-width:0.25;"/>
        <!-- Arc -->
        <path d="M58.0381,0.0004 A2,2 0 0,1 59.9996,1.9619" style="stroke:#000000;stroke-width:0.25;"/>
        <!-- Arc -->
        <path d="M60,2.0381 A0.0381,0.0381 0 0,1 59.9996,1.9619" style="stroke:#000000;stroke-width:0.25;"/>
        <!-- Line -->
        <path d="M60,2.0381 L60,38.9619 " style="stroke:#000000;stroke-width:0.25;"/>
        <!-- Arc -->
        <path d="M59.9996,39.0381 A0.0381,0.0381 0 0,1 60,38.9619" style="stroke:#000000;stroke-width:0.25;"/>
        <!-- Arc -->
        <path d="M59.9996,39.0381 A2,2 0 0,1 58.0381,40.9996" style="stroke:#000000;stroke-width:0.25;"/>
        <!-- Arc -->
        <path d="M57.9619,41 A0.0381,0.0381 0 0,1 58.0381,40.9996" style="stroke:#000000;stroke-width:0.25;"/>
        <!-- Line -->
        <path d="M0,47 L64.5,47 " style="stroke:#000000;stroke-width:0.25;"/>
        <!-- Line -->
        <path d="M66,45.5 L66,-4.5 " style="stroke:#000000;stroke-width:0.25;"/>
        <!-- Line -->
        <path d="M64.5,-6 L-4.5,-6 " style="stroke:#000000;stroke-width:0.25;"/>
        <!-- Line -->
        <path d="M-6,-4.5 L-6,45.5 " style="stroke:#000000;stroke-width:0.25;"/>
        <!-- Line -->
        <path d="M-4.5,47 L0,47 " style="stroke:#000000;stroke-width:0.25;"/>
        <!-- Arc -->
        <path d="M-6,45.5 A1.5,1.5 0 0,0 -4.5,47" style="stroke:#000000;stroke-width:0.25;"/>
        <!-- Arc -->
        <path d="M64.5,47 A1.5,1.5 0 0,0 66,45.5" style="stroke:#000000;stroke-width:0.25;"/>
        <!-- Arc -->
        <path d="M66,-4.5 A1.5,1.5 0 0,0 64.5,-6" style="stroke:#000000;stroke-width:0.25;"/>
        <!-- Arc -->
        <path d="M-4.5,-6 A1.5,1.5 0 0,0 -6,-4.5" style="stroke:#000000;stroke-width:0.25;"/>
    </g>
</svg>
